<?xml version="1.0" encoding="UTF-8"?>
<svg width="24" height="24" version="1.1" viewBox="0 0 24 24" xmlns="http://www.w3.org/2000/svg">
 <circle cx="12.052" cy="10.146" r="9.249" fill="#fff" stroke-miterlimit="50"/>
 <path d="m12 0c-5.522 0-10 4.395-10 9.815 0 5.505 4.375 9.268 10 14.185 5.625-4.917 10-8.68 10-14.185 0-5.42-4.478-9.815-10-9.815zm0 18c-4.419 0-8-3.582-8-8s3.581-8 8-8 8 3.582 8 8-3.581 8-8 8z"/>
 <path d="m16.489 9.2857h-3.7406v-3.7406h-1.4962v3.7406h-3.7406v1.4962h3.7406v3.7406h1.4962v-3.7406h3.7406z" stroke-width=".37406"/>
</svg>
